<?xml version="1.0" standalone="no"?><svg xmlns="http://www.w3.org/2000/svg" viewBox="0 0 1440 320"><path fill="#94b49f" fill-opacity="1" d="M0,288L30,261.3C60,235,120,181,180,176C240,171,300,213,360,213.3C420,213,480,171,540,170.7C600,171,660,213,720,234.7C780,256,840,256,900,234.7C960,213,1020,171,1080,176C1140,181,1200,235,1260,261.3C1320,288,1380,288,1410,288L1440,288L1440,320L1410,320C1380,320,1320,320,1260,320C1200,320,1140,320,1080,320C1020,320,960,320,900,320C840,320,780,320,720,320C660,320,600,320,540,320C480,320,420,320,360,320C300,320,240,320,180,320C120,320,60,320,30,320L0,320Z"></path></svg>