<?xml version="1.0" standalone="no"?><svg xmlns="http://www.w3.org/2000/svg" viewBox="0 0 1440 320"><path fill="#b4cfb0" fill-opacity="1" d="M0,64L15,80C30,96,60,128,90,128C120,128,150,96,180,106.7C210,117,240,171,270,186.7C300,203,330,181,360,186.7C390,192,420,224,450,208C480,192,510,128,540,101.3C570,75,600,85,630,106.7C660,128,690,160,720,154.7C750,149,780,107,810,85.3C840,64,870,64,900,69.3C930,75,960,85,990,80C1020,75,1050,53,1080,64C1110,75,1140,117,1170,133.3C1200,149,1230,139,1260,144C1290,149,1320,171,1350,186.7C1380,203,1410,213,1425,218.7L1440,224L1440,320L1425,320C1410,320,1380,320,1350,320C1320,320,1290,320,1260,320C1230,320,1200,320,1170,320C1140,320,1110,320,1080,320C1050,320,1020,320,990,320C960,320,930,320,900,320C870,320,840,320,810,320C780,320,750,320,720,320C690,320,660,320,630,320C600,320,570,320,540,320C510,320,480,320,450,320C420,320,390,320,360,320C330,320,300,320,270,320C240,320,210,320,180,320C150,320,120,320,90,320C60,320,30,320,15,320L0,320Z"></path></svg>