<?xml version="1.0" standalone="no"?><svg xmlns="http://www.w3.org/2000/svg" viewBox="0 0 1440 320"><path fill="#e3caa5" fill-opacity="1" d="M0,160L18.5,149.3C36.9,139,74,117,111,90.7C147.7,64,185,32,222,53.3C258.5,75,295,149,332,149.3C369.2,149,406,75,443,42.7C480,11,517,21,554,53.3C590.8,85,628,139,665,160C701.5,181,738,171,775,186.7C812.3,203,849,245,886,224C923.1,203,960,117,997,101.3C1033.8,85,1071,139,1108,138.7C1144.6,139,1182,85,1218,74.7C1255.4,64,1292,96,1329,101.3C1366.2,107,1403,85,1422,74.7L1440,64L1440,320L1421.5,320C1403.1,320,1366,320,1329,320C1292.3,320,1255,320,1218,320C1181.5,320,1145,320,1108,320C1070.8,320,1034,320,997,320C960,320,923,320,886,320C849.2,320,812,320,775,320C738.5,320,702,320,665,320C627.7,320,591,320,554,320C516.9,320,480,320,443,320C406.2,320,369,320,332,320C295.4,320,258,320,222,320C184.6,320,148,320,111,320C73.8,320,37,320,18,320L0,320Z"></path></svg>